<svg xmlns="http://www.w3.org/2000/svg" width="820" height="460" viewBox="0 0 820 460">
<rect width="100%" height="100%" fill="white"/>
<text x="410" y="30" text-anchor="middle" font-family="sans-serif" font-size="19">AINETWORK/USDT fixed-clock event notional</text>
<line x1="70" y1="390" x2="790" y2="390" stroke="black"/>
<line x1="70" y1="55" x2="70" y2="390" stroke="black"/>
<line x1="70" y1="85.5" x2="790" y2="85.5" stroke="black" stroke-dasharray="5,5"/>
<circle cx="70.0" cy="85.8" r="3.1" fill="black"/>
<circle cx="101.3" cy="85.8" r="3.1" fill="black"/>
<circle cx="122.2" cy="85.5" r="3.1" fill="black"/>
<circle cx="143.0" cy="84.9" r="3.1" fill="black"/>
<circle cx="153.5" cy="86.1" r="3.1" fill="black"/>
<circle cx="257.8" cy="85.5" r="3.1" fill="black"/>
<circle cx="278.7" cy="84.6" r="3.1" fill="black"/>
<circle cx="289.1" cy="84.8" r="3.1" fill="black"/>
<circle cx="299.6" cy="86.1" r="3.1" fill="black"/>
<circle cx="310.0" cy="85.8" r="3.1" fill="black"/>
<circle cx="330.9" cy="85.5" r="3.1" fill="black"/>
<circle cx="341.3" cy="84.8" r="3.1" fill="black"/>
<circle cx="351.7" cy="86.1" r="3.1" fill="black"/>
<circle cx="362.2" cy="85.9" r="3.1" fill="black"/>
<circle cx="372.6" cy="85.5" r="3.1" fill="black"/>
<circle cx="383.0" cy="85.7" r="3.1" fill="black"/>
<circle cx="393.5" cy="85.8" r="3.1" fill="black"/>
<circle cx="403.9" cy="85.1" r="3.1" fill="black"/>
<circle cx="414.3" cy="86.2" r="3.1" fill="black"/>
<circle cx="424.8" cy="86.0" r="3.1" fill="black"/>
<circle cx="435.2" cy="85.0" r="3.1" fill="black"/>
<circle cx="445.7" cy="85.8" r="3.1" fill="black"/>
<circle cx="456.1" cy="84.9" r="3.1" fill="black"/>
<circle cx="466.5" cy="85.8" r="3.1" fill="black"/>
<circle cx="477.0" cy="85.5" r="3.1" fill="black"/>
<circle cx="487.4" cy="85.6" r="3.1" fill="black"/>
<circle cx="497.8" cy="85.8" r="3.1" fill="black"/>
<circle cx="508.3" cy="84.6" r="3.1" fill="black"/>
<circle cx="518.7" cy="86.1" r="3.1" fill="black"/>
<circle cx="529.1" cy="85.5" r="3.1" fill="black"/>
<circle cx="539.6" cy="85.6" r="3.1" fill="black"/>
<circle cx="550.0" cy="85.7" r="3.1" fill="black"/>
<circle cx="560.4" cy="85.5" r="3.1" fill="black"/>
<circle cx="570.9" cy="84.7" r="3.1" fill="black"/>
<circle cx="581.3" cy="86.0" r="3.1" fill="black"/>
<circle cx="591.7" cy="85.9" r="3.1" fill="black"/>
<circle cx="602.2" cy="84.8" r="3.1" fill="black"/>
<circle cx="612.6" cy="86.1" r="3.1" fill="black"/>
<circle cx="623.0" cy="86.0" r="3.1" fill="black"/>
<circle cx="633.5" cy="85.5" r="3.1" fill="black"/>
<circle cx="643.9" cy="85.5" r="3.1" fill="black"/>
<circle cx="654.3" cy="85.6" r="3.1" fill="black"/>
<circle cx="664.8" cy="85.1" r="3.1" fill="black"/>
<circle cx="675.2" cy="86.2" r="3.1" fill="black"/>
<circle cx="685.7" cy="85.5" r="3.1" fill="black"/>
<circle cx="696.1" cy="85.5" r="3.1" fill="black"/>
<circle cx="706.5" cy="85.7" r="3.1" fill="black"/>
<circle cx="717.0" cy="86.0" r="3.1" fill="black"/>
<circle cx="727.4" cy="85.9" r="3.1" fill="black"/>
<circle cx="737.8" cy="85.5" r="3.1" fill="black"/>
<circle cx="748.3" cy="85.6" r="3.1" fill="black"/>
<circle cx="758.7" cy="85.0" r="3.1" fill="black"/>
<circle cx="769.1" cy="86.3" r="3.1" fill="black"/>
<circle cx="779.6" cy="84.8" r="3.1" fill="black"/>
<circle cx="790.0" cy="84.8" r="3.1" fill="black"/>

<text x="410" y="430" text-anchor="middle" font-family="sans-serif" font-size="12">UTC, 2026-09-27 06:27 through 2026-09-28 05:07</text>
<text x="18" y="230" transform="rotate(-90 18 230)" text-anchor="middle" font-family="sans-serif" font-size="12">notional per scheduled event (USDT)</text>
<text x="690" y="77.5" font-family="sans-serif" font-size="11">$20 reference</text>
</svg>
