<svg xmlns="http://www.w3.org/2000/svg" width="900" height="430" viewBox="0 0 900 430"><rect width="100%" height="100%" fill="white"/><text x="450" y="28" text-anchor="middle" font-size="20">AINETWORK cadence-event notional</text><line x1="60" y1="370" x2="840" y2="370" stroke="black"/><line x1="60" y1="60" x2="60" y2="370" stroke="black"/><line x1="60" y1="215" x2="840" y2="215" stroke="gray" stroke-dasharray="5 5"/><text x="835" y="209" text-anchor="end" font-size="13">$20</text><polyline fill="none" stroke="black" stroke-width="1.5" points="60.0,271.0 94.4,262.2 117.4,215.0 140.3,137.8 151.8,311.8 289.4,90.8 300.9,122.3 312.4,308.0 323.8,267.9 346.8,224.0 358.2,124.5 369.7,313.4 381.2,276.5 392.6,215.0 404.1,256.6 415.6,260.3 427.1,164.6 438.5,319.5 450.0,290.1 461.5,154.2 472.9,263.0 484.4,139.7 495.9,262.8 507.4,224.0 518.8,235.1 530.3,265.2 541.8,95.0 553.2,304.5 564.7,215.0 576.2,239.4 587.6,246.1 599.1,215.1 610.6,102.9 622.1,300.2 633.5,275.0 645.0,121.1 656.5,307.4 667.9,296.1 679.4,215.1 690.9,215.1 702.4,239.3 713.8,160.3 725.3,316.4 736.8,225.2 748.2,215.1 759.7,252.3 771.2,300.4 782.6,273.3 794.1,215.1 805.6,229.3 817.1,144.9 828.5,335.8 840.0,123.0"/><circle cx="60.0" cy="271.0" r="2.5" fill="black"/><circle cx="94.4" cy="262.2" r="2.5" fill="black"/><circle cx="117.4" cy="215.0" r="2.5" fill="black"/><circle cx="140.3" cy="137.8" r="2.5" fill="black"/><circle cx="151.8" cy="311.8" r="2.5" fill="black"/><circle cx="289.4" cy="90.8" r="2.5" fill="black"/><circle cx="300.9" cy="122.3" r="2.5" fill="black"/><circle cx="312.4" cy="308.0" r="2.5" fill="black"/><circle cx="323.8" cy="267.9" r="2.5" fill="black"/><circle cx="346.8" cy="224.0" r="2.5" fill="black"/><circle cx="358.2" cy="124.5" r="2.5" fill="black"/><circle cx="369.7" cy="313.4" r="2.5" fill="black"/><circle cx="381.2" cy="276.5" r="2.5" fill="black"/><circle cx="392.6" cy="215.0" r="2.5" fill="black"/><circle cx="404.1" cy="256.6" r="2.5" fill="black"/><circle cx="415.6" cy="260.3" r="2.5" fill="black"/><circle cx="427.1" cy="164.6" r="2.5" fill="black"/><circle cx="438.5" cy="319.5" r="2.5" fill="black"/><circle cx="450.0" cy="290.1" r="2.5" fill="black"/><circle cx="461.5" cy="154.2" r="2.5" fill="black"/><circle cx="472.9" cy="263.0" r="2.5" fill="black"/><circle cx="484.4" cy="139.7" r="2.5" fill="black"/><circle cx="495.9" cy="262.8" r="2.5" fill="black"/><circle cx="507.4" cy="224.0" r="2.5" fill="black"/><circle cx="518.8" cy="235.1" r="2.5" fill="black"/><circle cx="530.3" cy="265.2" r="2.5" fill="black"/><circle cx="541.8" cy="95.0" r="2.5" fill="black"/><circle cx="553.2" cy="304.5" r="2.5" fill="black"/><circle cx="564.7" cy="215.0" r="2.5" fill="black"/><circle cx="576.2" cy="239.4" r="2.5" fill="black"/><circle cx="587.6" cy="246.1" r="2.5" fill="black"/><circle cx="599.1" cy="215.1" r="2.5" fill="black"/><circle cx="610.6" cy="102.9" r="2.5" fill="black"/><circle cx="622.1" cy="300.2" r="2.5" fill="black"/><circle cx="633.5" cy="275.0" r="2.5" fill="black"/><circle cx="645.0" cy="121.1" r="2.5" fill="black"/><circle cx="656.5" cy="307.4" r="2.5" fill="black"/><circle cx="667.9" cy="296.1" r="2.5" fill="black"/><circle cx="679.4" cy="215.1" r="2.5" fill="black"/><circle cx="690.9" cy="215.1" r="2.5" fill="black"/><circle cx="702.4" cy="239.3" r="2.5" fill="black"/><circle cx="713.8" cy="160.3" r="2.5" fill="black"/><circle cx="725.3" cy="316.4" r="2.5" fill="black"/><circle cx="736.8" cy="225.2" r="2.5" fill="black"/><circle cx="748.2" cy="215.1" r="2.5" fill="black"/><circle cx="759.7" cy="252.3" r="2.5" fill="black"/><circle cx="771.2" cy="300.4" r="2.5" fill="black"/><circle cx="782.6" cy="273.3" r="2.5" fill="black"/><circle cx="794.1" cy="215.1" r="2.5" fill="black"/><circle cx="805.6" cy="229.3" r="2.5" fill="black"/><circle cx="817.1" cy="144.9" r="2.5" fill="black"/><circle cx="828.5" cy="335.8" r="2.5" fill="black"/><circle cx="840.0" cy="123.0" r="2.5" fill="black"/><text x="450" y="418" text-anchor="middle" font-size="13">2026-09-27 through 2026-09-28 05:07 UTC</text><text x="18" y="215" transform="rotate(-90 18 215)" text-anchor="middle" font-size="13">USDT per cadence event</text></svg>